:FULLY-SPECIFIED
:DEGREES
34
root 8.37006 15.7156 -30.2894 7.46617 -9.26176 -5.96368
lfemur -43.1757 9.34785 -14.0701
ltibia 37.5286
lfoot -0.111272 6.30194
ltoes -1.17601
rfemur 24.9859 6.03995 26.3704
rtibia -6.36111e-15
rfoot 0.900859 0.493113
rtoes -25.7335
lowerback -8.57143 1.12816 2.20849
upperback -1.18835 1.13464 3.94709
thorax 3.53776 0.566986 2.98671
lowerneck -21.3386 -4.59663 -12.2394
upperneck 15.9092 -5.57283 14.3747
head 9.3033 -1.84184 6.27937
lclavicle 2.60159e-14 2.0276e-14
lhumerus -44.2342 -6.19818 91.3372
lradius 22.5056
lwrist -1.5079
lhand 5.03273 -17.7216
lfingers 7.12502
lthumb 30.4012 9.79231
rclavicle 2.60159e-14 2.0276e-14
rhumerus -45.709 19.9087 -94.0476
rradius 54.2619
rwrist -26.3957
rhand -30.4486 -31.8402
rfingers 7.12502
rthumb -3.7507 -61.7869
35
root 8.40993 15.7484 -30.121 7.41997 -9.6598 -5.40573
lfemur -42.6819 9.36981 -14.8208
ltibia 38.0651
lfoot -1.0048 6.28322
ltoes -1.79755
rfemur 21.8723 6.11159 25.3364
rtibia 6.56433
rfoot 0.475736 0.324883
rtoes -20.8729
lowerback -8.70549 1.00095 1.54673
upperback -1.0742 1.01361 4.02196
thorax 3.72257 0.496689 3.43071
lowerneck -21.538 -4.50805 -12.2896
upperneck 15.766 -5.33806 14.1161
head 9.24545 -1.7559 6.22351
lclavicle 1.56419e-14 -3.18055e-14
lhumerus -43.8534 -5.43951 91.3174
lradius 22.0169
lwrist -1.92425
lhand 4.23587 -17.6731
lfingers 7.12502
lthumb 29.6409 9.97864
rclavicle 1.56419e-14 -3.18055e-14
rhumerus -45.5118 20.2975 -93.8309
rradius 53.3965
rwrist -25.7829
rhand -29.6056 -30.3521
rfingers 7.12502
rthumb -2.93661 -60.3117
36
root 8.44988 15.7668 -29.9592 7.39903 -9.89842 -5.07386
lfemur -42.1488 9.34365 -15.3456
ltibia 38.2629
lfoot -1.78525 6.32992
ltoes -2.44529
rfemur 19.8957 6.06036 24.643
rtibia 10.9854
rfoot 0.737994 0.280175
rtoes -20.1615
lowerback -8.39884 0.767574 1.09481
upperback -1.32664 0.759841 4.20191
thorax 3.29268 0.367045 3.83369
lowerneck -21.5318 -4.2981 -12.7885
upperneck 15.9772 -4.93514 14.2446
head 9.27223 -1.58595 6.42552
lclavicle 7.54916e-15 1.19271e-14
lhumerus -44.1541 -4.24931 91.1097
lradius 21.7995
lwrist -2.68133
lhand 4.465 -17.2334
lfingers 7.12502
lthumb 29.8596 10.3792
rclavicle 7.54916e-15 1.19271e-14
rhumerus -45.8829 20.7791 -93.8982
rradius 52.4048
rwrist -25.3713
rhand -29.5798 -30.2396
rfingers 7.12502
rthumb -2.91164 -60.1994
37
root 8.49557 15.7939 -29.7964 7.21605 -10.1163 -4.58679
lfemur -41.411 9.20673 -16.0231
ltibia 38.422
lfoot -2.6925 6.42172
ltoes -2.65949
rfemur 18.6991 5.81093 23.7048
rtibia 14.0654
rfoot 2.09281 0.539855
rtoes -20.6853
lowerback -7.54049 0.667346 0.771435
upperback -1.88675 0.709484 4.09126
thorax 2.23446 0.350496 3.86831
lowerneck -21.3164 -4.11579 -13.0276
upperneck 16.4494 -4.71423 14.4122
head 9.37232 -1.48797 6.57904
lclavicle -1.43373e-14 -4.77083e-15
lhumerus -44.9766 -3.41662 90.6584
lradius 21.6101
lwrist -3.33074
lhand 4.11877 -16.9605
lfingers 7.12502
lthumb 29.5291 10.711
rclavicle -1.43373e-14 -4.77083e-15
rhumerus -46.7041 20.629 -94.3116
rradius 51.3172
rwrist -25.0443
rhand -29.552 -29.655
rfingers 7.12502
rthumb -2.88482 -59.6152
38
root 8.54535 15.8302 -29.6296 6.96436 -10.2356 -3.81051
lfemur -40.5504 8.81622 -16.9795
ltibia 38.5162
lfoot -3.63476 6.6366
ltoes -2.51148
rfemur 17.7112 5.22018 22.3744
rtibia 16.7553
rfoot 2.66481 0.168955
rtoes -16.3177
lowerback -6.91946 0.655864 0.358467
upperback -2.26283 0.764249 3.77331
thorax 1.49635 0.385629 3.75822
lowerneck -21.3123 -4.16865 -13.083
upperneck 16.9589 -4.83837 14.4799
head 9.57065 -1.54235 6.61643
lclavicle 6.67171e-15 2.8625e-14
lhumerus -45.3788 -3.11021 90.2851
lradius 21.3765
lwrist -3.80593
lhand 3.92945 -16.7669
lfingers 7.12502
lthumb 29.3483 10.9364
rclavicle 6.67171e-15 2.8625e-14
rhumerus -47.245 20.1687 -94.6305
rradius 50.3225
rwrist -25.0303
rhand -29.93 -29.2293
rfingers 7.12502
rthumb -3.24985 -59.1843
39
root 8.59402 15.8609 -29.4605 6.66793 -10.1737 -3.18489
lfemur -39.6175 8.41061 -17.7854
ltibia 38.5276
lfoot -4.1176 6.72528
ltoes -2.04233
rfemur 16.7753 4.35236 21.2172
rtibia 19.5407
rfoot 3.38911 0.24968
rtoes -15.1578
lowerback -6.77526 0.60235 0.111804
upperback -2.24578 0.718657 3.49461
thorax 1.43742 0.363207 3.60142
lowerneck -21.3193 -4.24734 -12.9247
upperneck 16.9761 -4.98031 14.3885
head 9.59351 -1.60713 6.53381
lclavicle 8.51047e-15 7.15625e-15
lhumerus -45.1397 -3.16386 90.0628
lradius 21.1155
lwrist -4.08485
lhand 4.04619 -16.4142
lfingers 7.12502
lthumb 29.4598 11.2695
rclavicle 8.51047e-15 7.15625e-15
rhumerus -47.1264 19.779 -94.7034
rradius 49.2455
rwrist -25.0408
rhand -30.4695 -28.7895
rfingers 7.12502
rthumb -3.77081 -58.7359
40
root 8.63226 15.8805 -29.3073 6.37282 -10.2665 -2.80999
lfemur -38.7094 8.44957 -18.355
ltibia 38.463
lfoot -4.47159 6.63919
ltoes -2.16075
rfemur 15.7983 3.65586 20.4092
rtibia 22.3971
rfoot 4.12873 0.349172
rtoes -15.5989
lowerback -6.42937 0.60426 -0.0789744
upperback -2.27278 0.745275 3.29755
thorax 1.216 0.378752 3.50023
lowerneck -21.3162 -4.25924 -12.8726
upperneck 16.985 -5.03974 14.4933
head 9.60788 -1.6203 6.55561
lclavicle 1.79155e-14 3.57812e-14
lhumerus -44.8913 -3.09691 89.6853
lradius 20.7698
lwrist -4.32465
lhand 4.36771 -16.0118
lfingers 7.12502
lthumb 29.7667 11.6175
rclavicle 1.79155e-14 3.57812e-14
rhumerus -46.7811 19.1423 -94.6307
rradius 47.8166
rwrist -24.4049
rhand -30.1115 -27.7759
rfingers 7.12502
rthumb -3.42511 -57.7282
41
root 8.66514 15.8989 -29.165 6.26975 -10.4497 -2.52518
lfemur -38.0107 8.57115 -18.806
ltibia 38.3679
lfoot -5.22411 6.56969
ltoes -1.9569
rfemur 14.5627 3.054 19.7211
rtibia 25.2351
rfoot 5.26021 0.0607994
rtoes -14.9176
lowerback -6.05432 0.693054 -0.289925
upperback -2.46159 0.889628 3.15873
thorax 0.80311 0.456781 3.47691
lowerneck -21.4151 -4.33398 -13.0434
upperneck 17.3454 -5.1616 14.6919
head 9.78232 -1.66349 6.65807
lclavicle 4.05024e-15 2.46493e-14
lhumerus -44.6949 -2.74612 89.1888
lradius 20.3107
lwrist -4.92807
lhand 4.64036 -16.1481
lfingers 7.12502
lthumb 30.0269 11.4343
rclavicle 4.05024e-15 2.46493e-14
rhumerus -46.5465 18.3118 -94.4304
rradius 46.3746
rwrist -23.5928
rhand -29.1959 -26.4665
rfingers 7.12502
rthumb -2.54087 -56.4311
42
root 8.70153 15.9276 -29.0153 6.35292 -10.6905 -2.17215
lfemur -37.4537 8.58018 -19.3252
ltibia 38.2402
lfoot -5.99817 6.58237
ltoes -0.716628
rfemur 13.0702 2.50729 18.9134
rtibia 28.112
rfoot 6.43211 -0.379373
rtoes -12.6026
lowerback -6.19695 0.843713 -0.464342
upperback -2.48249 1.10116 3.00208
thorax 0.847453 0.562755 3.42934
lowerneck -21.4442 -4.46457 -12.9617
upperneck 17.3541 -5.30921 14.4361
head 9.80289 -1.7525 6.52466
lclavicle 2.20899e-14 -2.54444e-14
lhumerus -44.2194 -2.56614 88.8448
lradius 19.9607
lwrist -5.77177
lhand 4.24683 -16.6321
lfingers 7.12502
lthumb 29.6513 11.0177
rclavicle 2.20899e-14 -2.54444e-14
rhumerus -46.2987 17.6106 -94.1559
rradius 45.4521
rwrist -23.2246
rhand -29.1599 -26.6483
rfingers 7.12502
rthumb -2.50613 -56.6133
43
root 8.73599 15.9638 -28.8706 6.49109 -10.9388 -1.90946
lfemur -36.9652 8.69506 -19.8092
ltibia 38.0583
lfoot -6.41657 6.58196
ltoes -0.721869
rfemur 11.4358 2.04246 18.2781
rtibia 31.0054
rfoot 7.34581 -0.805795
rtoes -11.7334
lowerback -6.41294 0.865029 -0.651477
upperback -2.42835 1.13753 2.96688
thorax 1.01784 0.579398 3.50634
lowerneck -21.7121 -4.49454 -12.8711
upperneck 17.3288 -5.28562 14.1806
head 9.82728 -1.75322 6.41658
lclavicle 2.57675e-14 3.65764e-14
lhumerus -43.7876 -2.43703 88.6398
lradius 19.8916
lwrist -6.25794
lhand 3.6577 -16.697
lfingers 7.12502
lthumb 29.0889 11.0514
rclavicle 2.57675e-14 3.65764e-14
rhumerus -45.607 17.3206 -93.9563
rradius 44.3251
rwrist -23.0009
rhand -29.805 -28.1223
rfingers 7.12502
rthumb -3.1291 -58.0791
44
root 8.76838 15.9971 -28.734 6.60782 -11.1398 -1.90328
lfemur -36.4171 8.83938 -20.0065
ltibia 37.8351
lfoot -6.9658 6.57749
ltoes -2.26285
rfemur 9.81617 1.65161 18.0344
rtibia 33.8336
rfoot 8.33366 -1.45297
rtoes -12.2689
lowerback -6.39721 0.772259 -0.63243
upperback -2.49147 1.01381 2.97212
thorax 0.952434 0.51854 3.49131
lowerneck -21.9902 -4.33139 -12.7419
upperneck 17.5529 -5.11154 14.2766
head 9.9292 -1.64329 6.46892
lclavicle -7.60351e-15 -2.06736e-14
lhumerus -43.6394 -2.27735 88.3025
lradius 19.896
lwrist -6.37806
lhand 3.32048 -16.7836
lfingers 7.12502
lthumb 28.7668 11.02
rclavicle -7.60351e-15 -2.06736e-14
rhumerus -44.6835 17.079 -93.9673
rradius 42.5955
rwrist -22.4188
rhand -29.7269 -28.0152
rfingers 7.12502
rthumb -3.05368 -57.9731
45
root 8.80078 16.0259 -28.5997 6.48951 -11.3426 -1.70002
lfemur -35.6057 8.92197 -20.3517
ltibia 37.5516
lfoot -7.64192 6.59554
ltoes -3.11217
rfemur 8.45266 1.40226 17.6778
rtibia 36.5873
rfoot 9.33818 -2.43392
rtoes -11.1516
lowerback -6.10952 0.764287 -0.77238
upperback -2.59306 1.01751 2.86873
thorax 0.687148 0.524604 3.45661
lowerneck -21.8789 -4.23317 -12.4737
upperneck 17.5864 -5.06941 14.233
head 9.90556 -1.61359 6.41265
lclavicle 6.21202e-15 3.02153e-14
lhumerus -43.5098 -2.19675 87.9375
lradius 19.7504
lwrist -6.77627
lhand 3.01927 -17.4074
lfingers 7.12502
lthumb 28.479 10.4447
rclavicle 6.21202e-15 3.02153e-14
rhumerus -44.2434 16.456 -93.8417
rradius 41.1957
rwrist -21.6071
rhand -29.2643 -26.8777
rfingers 7.12502
rthumb -2.60694 -56.8415
46
root 8.83167 16.0532 -28.4668 6.27396 -11.5249 -1.33756
lfemur -34.678 8.97842 -20.844
ltibia 37.1683
lfoot -8.04872 6.57624
ltoes -2.9286
rfemur 7.18288 1.1653 17.208
rtibia 39.2469
rfoot 10.3026 -3.19035
rtoes -9.23414
lowerback -5.77992 0.821251 -1.09503
upperback -2.61805 1.11485 2.77372
thorax 0.467197 0.578159 3.5397
lowerneck -21.861 -4.28271 -12.1792
upperneck 17.5646 -5.14702 13.8554
head 9.88547 -1.67058 6.20552
lclavicle -2.23633e-16 3.10104e-14
lhumerus -43.1069 -2.1966 87.7489
lradius 19.4588
lwrist -7.24516
lhand 2.54332 -18.1598
lfingers 7.12502
lthumb 28.0241 9.76761
rclavicle -2.23633e-16 3.10104e-14
rhumerus -43.9898 15.7006 -93.4079
rradius 40.2763
rwrist -20.9512
rhand -28.8974 -26.4547
rfingers 7.12502
rthumb -2.25264 -56.4226
47
root 8.86631 16.0851 -28.3247 6.14903 -11.8777 -0.948465
lfemur -33.7273 9.10646 -21.4047
ltibia 36.6985
lfoot -8.47106 6.65959
ltoes -2.97527
rfemur 5.79587 0.923439 16.588
rtibia 41.7713
rfoot 11.252 -3.72273
rtoes -8.19988
lowerback -5.86091 0.864358 -1.35694
upperback -2.44393 1.18466 2.6859
thorax 0.682954 0.609846 3.60463
lowerneck -22.4967 -4.29688 -11.9942
upperneck 17.9538 -5.10679 13.4845
head 10.1145 -1.65741 6.05963
lclavicle -2.79541e-14 -7.95139e-15
lhumerus -42.358 -2.21195 87.6634
lradius 19.2894
lwrist -7.11634
lhand 2.29656 -18.2969
lfingers 7.12502
lthumb 27.7882 9.66885
rclavicle -2.79541e-14 -7.95139e-15
rhumerus -43.5762 15.1985 -92.9292
rradius 39.5828
rwrist -20.4475
rhand -28.2061 -25.3195
rfingers 7.12502
rthumb -1.58497 -55.2934
48
root 8.90258 16.1176 -28.1779 5.89511 -12.2486 -0.507219
lfemur -32.6092 9.15801 -21.9985
ltibia 36.192
lfoot -8.96615 6.85266
ltoes -2.93552
rfemur 4.5651 0.734076 15.9086
rtibia 44.167
rfoot 12.1267 -5.06322
rtoes -6.45875
lowerback -5.84837 0.877063 -1.62106
upperback -2.28643 1.21537 2.59477
thorax 0.832145 0.622361 3.66307
lowerneck -23.0175 -4.28715 -12.0518
upperneck 18.3703 -5.02907 13.3798
head 10.3442 -1.61992 6.06302
lclavicle 2.0276e-14 1.98785e-14
lhumerus -41.8666 -2.50618 87.797
lradius 19.5106
lwrist -6.41237
lhand 2.51656 -17.6557
lfingers 7.12502
lthumb 27.9985 10.2759
rclavicle 2.0276e-14 1.98785e-14
rhumerus -43.4875 14.9838 -92.5833
rradius 39.1927
rwrist -19.9991
rhand -27.8342 -24.3202
rfingers 7.12502
rthumb -1.22582 -54.2964
